<mxfile host="Electron" modified="2024-05-14T07:52:18.063Z" agent="Mozilla/5.0 (Windows NT 10.0; Win64; x64) AppleWebKit/537.36 (KHTML, like Gecko) draw.io/24.2.5 Chrome/120.0.6099.109 Electron/28.1.0 Safari/537.36" etag="ouTGSntiG7rZOqBackaN" version="24.2.5" type="device">
  <diagram name="Сторінка-1" id="W3NSWT2rFJ_a-ih1Fg-B">
    <mxGraphModel dx="2977" dy="1048" grid="1" gridSize="10" guides="1" tooltips="1" connect="1" arrows="1" fold="1" page="1" pageScale="1" pageWidth="827" pageHeight="1169" math="0" shadow="0">
      <root>
        <mxCell id="0" />
        <mxCell id="1" parent="0" />
        <mxCell id="LKjroRtgqp2IqV0X0XqU-3" value="&lt;b&gt;Реєстрація та авторизація&lt;/b&gt;&lt;div&gt;&lt;li style=&quot;text-align: left;&quot; data-sourcepos=&quot;10:9-10:26&quot;&gt;&lt;font face=&quot;O3_gOv3sNoKKMmyePONa&quot;&gt;Форма реєстрації&lt;/font&gt;&lt;/li&gt;&lt;li style=&quot;text-align: left;&quot; data-sourcepos=&quot;11:9-11:21&quot;&gt;&lt;font face=&quot;O3_gOv3sNoKKMmyePONa&quot;&gt;Форма входу&lt;/font&gt;&lt;/li&gt;&lt;li style=&quot;text-align: left;&quot; data-sourcepos=&quot;12:9-12:37&quot;&gt;&lt;font face=&quot;O3_gOv3sNoKKMmyePONa&quot;&gt;Система керування профілями&lt;/font&gt;&lt;/li&gt;&lt;li style=&quot;text-align: left;&quot; data-sourcepos=&quot;13:9-14:0&quot;&gt;&lt;font face=&quot;O3_gOv3sNoKKMmyePONa&quot;&gt;База даних користувачів&lt;/font&gt;&lt;/li&gt;&lt;/div&gt;" style="shape=module;align=left;spacingLeft=20;align=center;verticalAlign=top;whiteSpace=wrap;html=1;" parent="1" vertex="1">
          <mxGeometry x="-230" y="195" width="250" height="100" as="geometry" />
        </mxCell>
        <mxCell id="LKjroRtgqp2IqV0X0XqU-4" value="&lt;b&gt;Навчальні матеріали&lt;/b&gt;&lt;div&gt;&lt;li style=&quot;text-align: left;&quot; data-sourcepos=&quot;18:9-18:27&quot;&gt;Каталог предметів&lt;/li&gt;&lt;li style=&quot;text-align: left;&quot; data-sourcepos=&quot;19:9-19:26&quot;&gt;Каталог розділів&lt;/li&gt;&lt;li style=&quot;text-align: left;&quot; data-sourcepos=&quot;20:9-20:40&quot;&gt;Каталог теоретичних матеріалів&lt;/li&gt;&lt;li style=&quot;text-align: left;&quot; data-sourcepos=&quot;21:9-21:36&quot;&gt;Каталог практичних завдань&lt;/li&gt;&lt;li style=&quot;text-align: left;&quot; data-sourcepos=&quot;22:9-22:24&quot;&gt;Каталог тестів&lt;/li&gt;&lt;li style=&quot;text-align: left;&quot; data-sourcepos=&quot;23:9-23:24&quot;&gt;Система пошуку&lt;/li&gt;&lt;li style=&quot;text-align: left;&quot; data-sourcepos=&quot;24:9-25:0&quot;&gt;Система зберігання файлів&lt;/li&gt;&lt;/div&gt;" style="shape=module;align=left;spacingLeft=20;align=center;verticalAlign=top;whiteSpace=wrap;html=1;" parent="1" vertex="1">
          <mxGeometry x="153.5" y="190" width="260" height="140" as="geometry" />
        </mxCell>
        <mxCell id="LKjroRtgqp2IqV0X0XqU-7" value="&lt;b&gt;Адміністрування&lt;/b&gt;&lt;div style=&quot;text-align: left;&quot;&gt;&lt;li data-sourcepos=&quot;50:9-50:36&quot;&gt;Адміністративний інтерфейс&lt;/li&gt;&lt;li data-sourcepos=&quot;51:9-51:41&quot;&gt;Система керування користувачами&lt;/li&gt;&lt;li data-sourcepos=&quot;52:9-52:35&quot;&gt;Система керування тестами&lt;/li&gt;&lt;li data-sourcepos=&quot;53:9-53:51&quot;&gt;Система керування навчальними матеріалами&lt;/li&gt;&lt;li data-sourcepos=&quot;54:9-55:0&quot;&gt;Система налаштування платформи&lt;/li&gt;&lt;/div&gt;" style="shape=module;align=left;spacingLeft=20;align=center;verticalAlign=top;whiteSpace=wrap;html=1;" parent="1" vertex="1">
          <mxGeometry x="-10" y="670" width="280" height="120" as="geometry" />
        </mxCell>
        <mxCell id="LKjroRtgqp2IqV0X0XqU-8" value="&lt;b&gt;Спілкування&lt;/b&gt;&lt;div style=&quot;text-align: left;&quot;&gt;&lt;li data-sourcepos=&quot;37:9-37:15&quot;&gt;Форум&lt;/li&gt;&lt;li data-sourcepos=&quot;38:9-38:13&quot;&gt;Чат&lt;/li&gt;&lt;li data-sourcepos=&quot;39:9-40:0&quot;&gt;Система приватних повідомлень&lt;/li&gt;&lt;/div&gt;" style="shape=module;align=left;spacingLeft=20;align=center;verticalAlign=top;whiteSpace=wrap;html=1;" parent="1" vertex="1">
          <mxGeometry x="-20" y="504.5" width="255" height="80" as="geometry" />
        </mxCell>
        <mxCell id="LKjroRtgqp2IqV0X0XqU-9" value="&lt;b&gt;Мобільна версія&lt;/b&gt;&lt;div style=&quot;text-align: left;&quot;&gt;&lt;li data-sourcepos=&quot;44:9-44:29&quot;&gt;Мобільний інтерфейс&lt;/li&gt;&lt;li data-sourcepos=&quot;45:9-46:0&quot;&gt;API мобільної версії&lt;/li&gt;&lt;/div&gt;" style="shape=module;align=left;spacingLeft=20;align=center;verticalAlign=top;whiteSpace=wrap;html=1;" parent="1" vertex="1">
          <mxGeometry x="320" y="500" width="250" height="65" as="geometry" />
        </mxCell>
        <mxCell id="LKjroRtgqp2IqV0X0XqU-10" value="&lt;b&gt;Тестування&lt;/b&gt;&lt;div style=&quot;text-align: left;&quot;&gt;&lt;li data-sourcepos=&quot;29:9-29:25&quot;&gt;Редактор тестів&lt;/li&gt;&lt;li data-sourcepos=&quot;30:9-30:36&quot;&gt;Система генерування тестів&lt;/li&gt;&lt;li data-sourcepos=&quot;31:9-31:35&quot;&gt;Система оцінювання тестів&lt;/li&gt;&lt;li data-sourcepos=&quot;32:9-33:0&quot;&gt;Система аналітики результатів&lt;/li&gt;&lt;/div&gt;" style="shape=module;align=left;spacingLeft=20;align=center;verticalAlign=top;whiteSpace=wrap;html=1;" parent="1" vertex="1">
          <mxGeometry x="540" y="195" width="235" height="100" as="geometry" />
        </mxCell>
        <mxCell id="LKjroRtgqp2IqV0X0XqU-11" value="&lt;b&gt;Безпека&lt;/b&gt;&lt;div style=&quot;text-align: left;&quot;&gt;&lt;li data-sourcepos=&quot;59:9-59:32&quot;&gt;Система аутентифікації&lt;/li&gt;&lt;li data-sourcepos=&quot;60:9-60:29&quot;&gt;Система авторизації&lt;/li&gt;&lt;li data-sourcepos=&quot;61:9-61:26&quot;&gt;Шифрування даних&lt;/li&gt;&lt;li data-sourcepos=&quot;62:9-63:0&quot;&gt;Захист від DDoS-атак&lt;/li&gt;&lt;/div&gt;" style="shape=module;align=left;spacingLeft=20;align=center;verticalAlign=top;whiteSpace=wrap;html=1;" parent="1" vertex="1">
          <mxGeometry x="363" y="670" width="204" height="90" as="geometry" />
        </mxCell>
        <mxCell id="lZg3jeDKlH9Jcqh30hlz-1" value="&lt;font style=&quot;font-size: 18px;&quot; face=&quot;Times New Roman&quot;&gt;&lt;b&gt;Платформа ЗНО&lt;/b&gt;&lt;/font&gt;" style="shape=module;align=left;spacingLeft=20;align=center;verticalAlign=top;whiteSpace=wrap;html=1;" parent="1" vertex="1">
          <mxGeometry x="198.5" width="170" height="30" as="geometry" />
        </mxCell>
        <mxCell id="lZg3jeDKlH9Jcqh30hlz-6" value="" style="shape=line;html=1;strokeWidth=6;strokeColor=#ff0000;" parent="1" vertex="1">
          <mxGeometry x="-120" y="100" width="830" height="10" as="geometry" />
        </mxCell>
        <mxCell id="lZg3jeDKlH9Jcqh30hlz-7" value="" style="edgeStyle=orthogonalEdgeStyle;html=1;verticalAlign=bottom;endArrow=open;endSize=8;strokeColor=#ff0000;rounded=0;" parent="1" source="lZg3jeDKlH9Jcqh30hlz-6" edge="1">
          <mxGeometry relative="1" as="geometry">
            <mxPoint x="295" y="190" as="targetPoint" />
          </mxGeometry>
        </mxCell>
        <mxCell id="lZg3jeDKlH9Jcqh30hlz-8" value="" style="edgeStyle=orthogonalEdgeStyle;html=1;verticalAlign=bottom;endArrow=open;endSize=8;strokeColor=#ff0000;rounded=0;" parent="1" edge="1">
          <mxGeometry relative="1" as="geometry">
            <mxPoint x="-100" y="195" as="targetPoint" />
            <mxPoint x="-100" y="115" as="sourcePoint" />
          </mxGeometry>
        </mxCell>
        <mxCell id="lZg3jeDKlH9Jcqh30hlz-9" value="" style="edgeStyle=orthogonalEdgeStyle;html=1;verticalAlign=bottom;endArrow=open;endSize=8;strokeColor=#ff0000;rounded=0;" parent="1" edge="1">
          <mxGeometry relative="1" as="geometry">
            <mxPoint x="680" y="195" as="targetPoint" />
            <mxPoint x="680" y="115" as="sourcePoint" />
          </mxGeometry>
        </mxCell>
        <mxCell id="lZg3jeDKlH9Jcqh30hlz-12" value="" style="edgeStyle=orthogonalEdgeStyle;html=1;verticalAlign=bottom;endArrow=open;endSize=8;strokeColor=#ff0000;rounded=0;" parent="1" edge="1">
          <mxGeometry relative="1" as="geometry">
            <mxPoint x="294.09" y="100" as="targetPoint" />
            <mxPoint x="294.09" y="40" as="sourcePoint" />
          </mxGeometry>
        </mxCell>
        <mxCell id="lZg3jeDKlH9Jcqh30hlz-15" value="" style="edgeStyle=orthogonalEdgeStyle;html=1;verticalAlign=bottom;endArrow=open;endSize=8;strokeColor=#ff0000;rounded=0;" parent="1" edge="1">
          <mxGeometry relative="1" as="geometry">
            <mxPoint x="294.09" y="410" as="targetPoint" />
            <mxPoint x="294.09" y="330" as="sourcePoint" />
          </mxGeometry>
        </mxCell>
        <mxCell id="lZg3jeDKlH9Jcqh30hlz-16" value="" style="shape=line;html=1;strokeWidth=6;strokeColor=#ff0000;" parent="1" vertex="1">
          <mxGeometry x="50" y="410" width="470" height="10" as="geometry" />
        </mxCell>
        <mxCell id="lZg3jeDKlH9Jcqh30hlz-18" value="" style="edgeStyle=orthogonalEdgeStyle;html=1;verticalAlign=bottom;endArrow=open;endSize=8;strokeColor=#ff0000;rounded=0;" parent="1" edge="1">
          <mxGeometry relative="1" as="geometry">
            <mxPoint x="460" y="500" as="targetPoint" />
            <mxPoint x="460" y="420" as="sourcePoint" />
          </mxGeometry>
        </mxCell>
        <mxCell id="lZg3jeDKlH9Jcqh30hlz-19" value="" style="edgeStyle=orthogonalEdgeStyle;html=1;verticalAlign=bottom;endArrow=open;endSize=8;strokeColor=#ff0000;rounded=0;" parent="1" edge="1">
          <mxGeometry relative="1" as="geometry">
            <mxPoint x="106.58999999999997" y="500" as="targetPoint" />
            <mxPoint x="106.58999999999997" y="420" as="sourcePoint" />
          </mxGeometry>
        </mxCell>
        <mxCell id="lZg3jeDKlH9Jcqh30hlz-20" value="" style="edgeStyle=orthogonalEdgeStyle;html=1;verticalAlign=bottom;endArrow=open;endSize=8;strokeColor=#ff0000;rounded=0;" parent="1" edge="1">
          <mxGeometry relative="1" as="geometry">
            <mxPoint x="109.99999999999997" y="665" as="targetPoint" />
            <mxPoint x="109.99999999999997" y="585" as="sourcePoint" />
          </mxGeometry>
        </mxCell>
        <mxCell id="lZg3jeDKlH9Jcqh30hlz-21" value="" style="edgeStyle=orthogonalEdgeStyle;html=1;verticalAlign=bottom;endArrow=open;endSize=8;strokeColor=#ff0000;rounded=0;" parent="1" edge="1">
          <mxGeometry relative="1" as="geometry">
            <mxPoint x="464" y="660" as="targetPoint" />
            <mxPoint x="464.09" y="565" as="sourcePoint" />
          </mxGeometry>
        </mxCell>
        <mxCell id="CYx0iwg8bz4mSIjBFmCi-1" value="БАЗА ДАНИХ" style="shape=cylinder3;whiteSpace=wrap;html=1;boundedLbl=1;backgroundOutline=1;size=15;" vertex="1" parent="1">
          <mxGeometry x="183.5" y="930" width="200" height="130" as="geometry" />
        </mxCell>
        <mxCell id="CYx0iwg8bz4mSIjBFmCi-2" value="" style="edgeStyle=orthogonalEdgeStyle;html=1;verticalAlign=bottom;endArrow=open;endSize=8;strokeColor=#ff0000;rounded=0;entryX=0.145;entryY=0;entryDx=0;entryDy=4.35;entryPerimeter=0;" edge="1" parent="1" target="CYx0iwg8bz4mSIjBFmCi-1">
          <mxGeometry relative="1" as="geometry">
            <mxPoint x="209.99999999999997" y="870" as="targetPoint" />
            <mxPoint x="209.99999999999997" y="790" as="sourcePoint" />
          </mxGeometry>
        </mxCell>
        <mxCell id="CYx0iwg8bz4mSIjBFmCi-5" value="" style="edgeStyle=orthogonalEdgeStyle;html=1;verticalAlign=bottom;endArrow=open;endSize=8;strokeColor=#ff0000;rounded=0;" edge="1" parent="1">
          <mxGeometry relative="1" as="geometry">
            <mxPoint x="370" y="940" as="targetPoint" />
            <mxPoint x="370.09" y="760" as="sourcePoint" />
          </mxGeometry>
        </mxCell>
        <mxCell id="CYx0iwg8bz4mSIjBFmCi-6" value="" style="edgeStyle=orthogonalEdgeStyle;html=1;verticalAlign=bottom;endArrow=open;endSize=8;strokeColor=#ff0000;rounded=0;entryX=0.61;entryY=-0.008;entryDx=0;entryDy=0;entryPerimeter=0;" edge="1" parent="1" target="CYx0iwg8bz4mSIjBFmCi-1">
          <mxGeometry relative="1" as="geometry">
            <mxPoint x="368.5" y="655" as="targetPoint" />
            <mxPoint x="340" y="560" as="sourcePoint" />
            <Array as="points">
              <mxPoint x="330" y="560" />
              <mxPoint x="330" y="746" />
              <mxPoint x="306" y="746" />
            </Array>
          </mxGeometry>
        </mxCell>
        <mxCell id="CYx0iwg8bz4mSIjBFmCi-7" value="" style="edgeStyle=orthogonalEdgeStyle;html=1;verticalAlign=bottom;endArrow=open;endSize=8;strokeColor=#ff0000;rounded=0;entryX=0;entryY=0;entryDx=0;entryDy=90;entryPerimeter=0;" edge="1" parent="1" target="CYx0iwg8bz4mSIjBFmCi-1">
          <mxGeometry relative="1" as="geometry">
            <mxPoint x="-200" y="385" as="targetPoint" />
            <mxPoint x="-199.91000000000003" y="290" as="sourcePoint" />
            <Array as="points">
              <mxPoint x="-200" y="1020" />
            </Array>
          </mxGeometry>
        </mxCell>
        <mxCell id="CYx0iwg8bz4mSIjBFmCi-8" value="" style="edgeStyle=orthogonalEdgeStyle;html=1;verticalAlign=bottom;endArrow=open;endSize=8;strokeColor=#ff0000;rounded=0;" edge="1" parent="1" target="CYx0iwg8bz4mSIjBFmCi-1">
          <mxGeometry relative="1" as="geometry">
            <mxPoint x="414" y="410" as="targetPoint" />
            <mxPoint x="414.09" y="315" as="sourcePoint" />
            <Array as="points">
              <mxPoint x="650" y="315" />
              <mxPoint x="650" y="995" />
            </Array>
          </mxGeometry>
        </mxCell>
      </root>
    </mxGraphModel>
  </diagram>
</mxfile>
